<svg xmlns="http://www.w3.org/2000/svg" xmlns:xlink="http://www.w3.org/1999/xlink" width="180" height="109" viewBox="-4 -2 180 109"><defs><ellipse id="a" cx="2.978" cy="2.941" rx="2.978" ry="2.941"/><ellipse id="b" cx="11.913" cy="2.941" rx="2.978" ry="2.941"/><ellipse id="c" cx="20.848" cy="2.941" rx="2.978" ry="2.941"/></defs><g fill="none" fill-rule="evenodd"><rect fill="#D8D8D8" width="172" height="100" rx="6"/><path d="M0 13.235h172v80.767a5.997 5.997 0 0 1-5.996 5.998H5.996A6 6 0 0 1 0 94.002V13.235Z" fill="#101010"/><use fill="#FF483F" xlink:href="#a" transform="translate(4.468 4.412)"/><use fill="#ECBB38" xlink:href="#b" transform="translate(4.468 4.412)"/><use fill="#36D3A8" xlink:href="#c" transform="translate(4.468 4.412)"/><rect fill="#D8D8D8" x="41" y="5" width="74" height="4" rx="2"/><rect fill="#D8D8D8" x="7" y="60" width="108" height="4" rx="2"/><rect fill="#D8D8D8" x="7" y="36" width="108" height="4" rx="2"/><rect fill="#D8D8D8" x="7" y="44" width="108" height="4" rx="2"/><rect fill="#E72B5F" x="7" y="28" width="46" height="4" rx="2"/><rect fill="#E72B5F" x="58" y="28" width="46" height="4" rx="2"/><rect fill="#E72B5F" x="7" y="68" width="46" height="4" rx="2"/><rect fill="#E72B5F" x="7" y="76" width="46" height="4" rx="2"/><rect fill="#D8D8D8" x="7" y="52" width="46" height="4" rx="2"/><rect fill="#D8D8D8" x="58" y="52" width="46" height="4" rx="2"/><rect fill="#D8D8D8" x="109" y="52" width="46" height="4" rx="2"/><rect fill="#D8D8D8" x="120" y="36" width="12" height="4" rx="2"/><rect fill="#D8D8D8" x="7" y="20" width="12" height="4" rx="2"/><path fill="#FFF" d="M7.46 88.93v1.14l5.08-2.01v-1.18l-5.08-2.02v1.15l3.67 1.46z"/><rect fill="#D8D8D8" x="137" y="36" width="12" height="4" rx="2"/><rect fill="#D8D8D8" x="24" y="20" width="12" height="4" rx="2"/></g></svg>